<svg xmlns="http://www.w3.org/2000/svg" width="75.75" viewBox="0 0 75.75 30" height="30" version="1.0"><defs><clipPath id="a"><path d="M 1.101562 0 L 74.40625 0 L 74.40625 29.03125 L 1.101562 29.03125 Z M 1.101562 0"/></clipPath><clipPath id="b"><path d="M 18.417969 9.324219 L 23.839844 9.324219 L 23.839844 14.75 L 18.417969 14.75 Z M 18.417969 9.324219"/></clipPath><clipPath id="c"><path d="M 24.058594 14.71875 L 29.484375 14.71875 L 29.484375 20.144531 L 24.058594 20.144531 Z M 24.058594 14.71875"/></clipPath></defs><g clip-path="url(#a)"><path fill="#FFF" d="M 1.101562 0 L 74.648438 0 L 74.648438 36.410156 L 1.101562 36.410156 Z M 1.101562 0"/><path fill="#FFF" d="M 1.101562 0 L 74.648438 0 L 74.648438 29.128906 L 1.101562 29.128906 Z M 1.101562 0"/><path d="M 1.101562 0 L 74.648438 0 L 74.648438 29.128906 L 1.101562 29.128906 Z M 1.101562 0"/></g><g fill="#FFF"><g><g><path d="M 1.765625 -1.265625 L 0.484375 -1.265625 L 0.484375 0 L 0.359375 0 L 0.359375 -2.625 L 0.484375 -2.625 L 0.484375 -1.390625 L 1.765625 -1.390625 L 1.765625 -2.625 L 1.90625 -2.625 L 1.90625 0 L 1.765625 0 Z M 1.765625 -1.265625" transform="translate(30.396 18.941)"/></g></g></g><g fill="#FFF"><g><g><path d="M 1.125 0.046875 C 0.84375 0.046875 0.625 -0.0625 0.46875 -0.28125 C 0.320312 -0.5 0.25 -0.84375 0.25 -1.3125 C 0.25 -1.78125 0.320312 -2.125 0.46875 -2.34375 C 0.625 -2.5625 0.84375 -2.671875 1.125 -2.671875 C 1.414062 -2.671875 1.632812 -2.5625 1.78125 -2.34375 C 1.925781 -2.125 2 -1.78125 2 -1.3125 C 2 -0.84375 1.925781 -0.5 1.78125 -0.28125 C 1.632812 -0.0625 1.414062 0.046875 1.125 0.046875 Z M 1.125 -0.078125 C 1.375 -0.078125 1.554688 -0.164062 1.671875 -0.34375 C 1.796875 -0.53125 1.859375 -0.804688 1.859375 -1.171875 L 1.859375 -1.453125 C 1.859375 -1.816406 1.796875 -2.085938 1.671875 -2.265625 C 1.554688 -2.453125 1.375 -2.546875 1.125 -2.546875 C 0.882812 -2.546875 0.703125 -2.453125 0.578125 -2.265625 C 0.460938 -2.085938 0.40625 -1.816406 0.40625 -1.453125 L 0.40625 -1.171875 C 0.40625 -0.804688 0.460938 -0.53125 0.578125 -0.34375 C 0.703125 -0.164062 0.882812 -0.078125 1.125 -0.078125 Z M 1.125 -0.078125" transform="translate(33.185 18.941)"/></g></g></g><g fill="#FFF"><g><g><path d="M 1.03125 0 L 0.1875 -2.625 L 0.34375 -2.625 L 1.125 -0.140625 L 1.140625 -0.140625 L 1.921875 -2.625 L 2.078125 -2.625 L 1.21875 0 Z M 1.03125 0" transform="translate(35.975 18.941)"/></g></g></g><g fill="#FFF"><g><g><path d="M 0.34375 0 L 0.34375 -0.109375 L 1.0625 -0.109375 L 1.0625 -2.515625 L 0.34375 -2.515625 L 0.34375 -2.625 L 1.921875 -2.625 L 1.921875 -2.515625 L 1.203125 -2.515625 L 1.203125 -0.109375 L 1.921875 -0.109375 L 1.921875 0 Z M 0.34375 0" transform="translate(38.764 18.941)"/></g></g></g><g fill="#00C2CB"><g><g><path d="M 0.53125 0 L 0.390625 0 L 0.390625 -2.625 L 1.3125 -2.625 C 1.539062 -2.625 1.710938 -2.554688 1.828125 -2.421875 C 1.941406 -2.296875 2 -2.125 2 -1.90625 C 2 -1.6875 1.941406 -1.515625 1.828125 -1.390625 C 1.722656 -1.265625 1.5625 -1.195312 1.34375 -1.1875 L 1.234375 -1.1875 L 1.984375 0 L 1.828125 0 L 1.078125 -1.1875 L 0.53125 -1.1875 Z M 1.3125 -1.3125 C 1.40625 -1.3125 1.484375 -1.320312 1.546875 -1.34375 C 1.617188 -1.375 1.675781 -1.410156 1.71875 -1.453125 C 1.757812 -1.503906 1.789062 -1.5625 1.8125 -1.625 C 1.832031 -1.6875 1.84375 -1.753906 1.84375 -1.828125 L 1.84375 -1.984375 C 1.84375 -2.054688 1.832031 -2.125 1.8125 -2.1875 C 1.789062 -2.25 1.757812 -2.300781 1.71875 -2.34375 C 1.675781 -2.394531 1.617188 -2.429688 1.546875 -2.453125 C 1.484375 -2.484375 1.40625 -2.5 1.3125 -2.5 L 0.53125 -2.5 L 0.53125 -1.3125 Z M 1.3125 -1.3125" transform="translate(41.552 18.941)"/></g></g></g><g fill="#FF4F63"><g><g><path d="M 0.53125 0 L 0.390625 0 L 0.390625 -2.625 L 1.3125 -2.625 C 1.539062 -2.625 1.710938 -2.554688 1.828125 -2.421875 C 1.941406 -2.296875 2 -2.125 2 -1.90625 C 2 -1.6875 1.941406 -1.515625 1.828125 -1.390625 C 1.722656 -1.265625 1.5625 -1.195312 1.34375 -1.1875 L 1.234375 -1.1875 L 1.984375 0 L 1.828125 0 L 1.078125 -1.1875 L 0.53125 -1.1875 Z M 1.3125 -1.3125 C 1.40625 -1.3125 1.484375 -1.320312 1.546875 -1.34375 C 1.617188 -1.375 1.675781 -1.410156 1.71875 -1.453125 C 1.757812 -1.503906 1.789062 -1.5625 1.8125 -1.625 C 1.832031 -1.6875 1.84375 -1.753906 1.84375 -1.828125 L 1.84375 -1.984375 C 1.84375 -2.054688 1.832031 -2.125 1.8125 -2.1875 C 1.789062 -2.25 1.757812 -2.300781 1.71875 -2.34375 C 1.675781 -2.394531 1.617188 -2.429688 1.546875 -2.453125 C 1.484375 -2.484375 1.40625 -2.5 1.3125 -2.5 L 0.53125 -2.5 L 0.53125 -1.3125 Z M 1.3125 -1.3125" transform="translate(44.34 18.941)"/></g></g></g><g fill="#FFF"><g><g><path d="M 0.390625 0 L 0.390625 -2.625 L 1.9375 -2.625 L 1.9375 -2.5 L 0.53125 -2.5 L 0.53125 -1.390625 L 1.890625 -1.390625 L 1.890625 -1.265625 L 0.53125 -1.265625 L 0.53125 -0.125 L 1.9375 -0.125 L 1.9375 0 Z M 0.390625 0" transform="translate(47.13 18.941)"/></g></g></g><g fill="#FFF"><g><g><path d="M 1.9375 0 L 1.65625 -0.84375 L 0.59375 -0.84375 L 0.3125 0 L 0.171875 0 L 1.046875 -2.625 L 1.21875 -2.625 L 2.078125 0 Z M 1.140625 -2.484375 L 1.125 -2.484375 L 0.625 -0.96875 L 1.625 -0.96875 Z M 1.140625 -2.484375" transform="translate(49.918 18.941)"/></g></g></g><g fill="#FFF"><g><g><path d="M 0.53125 0 L 0.53125 -2.625 L 0.65625 -2.625 L 0.65625 -0.125 L 2 -0.125 L 2 0 Z M 0.53125 0" transform="translate(52.708 18.941)"/></g></g></g><g clip-path="url(#b)"><path fill="#00C2CB" d="M 18.417969 9.324219 L 23.839844 9.324219 L 23.839844 14.75 L 18.417969 14.75 Z M 18.417969 9.324219"/></g><g fill="#FFF"><g><g><path d="M 0.484375 -3.3125 L 1.765625 -0.234375 L 3.03125 -3.3125 L 3.21875 -3.3125 L 1.84375 0 L 1.65625 0 L 0.296875 -3.3125 Z M 0.484375 -3.3125" transform="translate(19.14 19.511)"/></g></g></g><g fill="#FFF"><g><g><path d="M 0.484375 0 L 0.484375 -3.3125 L 0.65625 -3.3125 L 0.65625 -2.375 C 0.988281 -2.375 1.300781 -2.3125 1.59375 -2.1875 C 1.882812 -2.0625 2.140625 -1.882812 2.359375 -1.65625 C 2.578125 -1.4375 2.742188 -1.179688 2.859375 -0.890625 L 2.859375 -3.3125 L 3.046875 -3.3125 L 3.046875 0 L 2.859375 0 C 2.859375 -0.394531 2.757812 -0.757812 2.5625 -1.09375 C 2.363281 -1.4375 2.097656 -1.707031 1.765625 -1.90625 C 1.429688 -2.101562 1.0625 -2.203125 0.65625 -2.203125 L 0.65625 0 Z M 0.484375 0" transform="translate(24.99 14.009)"/></g></g></g><g clip-path="url(#c)"><path fill="#FF4F63" d="M 24.058594 14.71875 L 29.484375 14.71875 L 29.484375 20.144531 L 24.058594 20.144531 Z M 24.058594 14.71875"/></g></svg>